<svg width="24" height="24" viewBox="0 0 24 24" fill="none" xmlns="http://www.w3.org/2000/svg">
<path d="M11.494 0.158646L0.331324 8.15865C0.125178 8.30802 -0.0013545 8.553 1.09404e-05 8.80042V23.2C1.09404e-05 23.6189 0.398873 24 0.837263 24H8.37208C8.81046 24 9.20933 23.6189 9.20933 23.2V16.5333H14.7907V23.2C14.7907 23.6189 15.1895 24 15.6279 24H23.1627C23.6011 24 24 23.6189 24 23.2V8.80042C24 8.55321 23.8748 8.30822 23.6687 8.15865L12.506 0.158646C12.1404 -0.0630777 11.8218 -0.0424348 11.4943 0.158646H11.494ZM11.9997 1.80022L22.3252 9.20022V22.4002H16.4648V15.7336C16.4648 15.3147 16.0659 14.9335 15.6276 14.9335H8.3718C7.93342 14.9335 7.53455 15.3147 7.53455 15.7336V22.4002H1.67414V9.20022L11.9997 1.80022Z" fill="white"/>
</svg>
