<svg width="112" height="35" viewBox="0 0 112 35" fill="none" xmlns="http://www.w3.org/2000/svg">
<g clip-path="url(#clip0_12_655)">
<path d="M98.4551 24.3678H94.8611C94.9451 24.1619 95.0478 23.9464 95.1692 23.774C95.2672 23.6399 95.5846 23.2615 95.5846 23.2615H90.6604C90.6604 23.2615 90.8331 23.6686 90.8051 24.3774C89.8903 24.3774 89.2835 24.387 89.2835 24.387L88.3174 26.3266C88.3174 26.3266 88.8261 26.1782 89.5543 26.1782H90.4364C89.923 27.8784 88.6768 32.1408 88.6768 32.1408C88.6768 32.1408 88.3407 33.2423 87.6779 34.0182C87.4072 34.3343 87.0105 34.5786 87.0105 34.5786H90.8985C91.0852 34.5354 91.3465 34.2625 91.5379 34.0374C91.7246 33.8314 91.916 33.5441 92.0933 33.2232L92.9008 34.5594H97.1388C97.4329 34.5594 98.0817 34.2625 98.4177 33.1274C98.7491 31.9923 100.173 25.9483 100.173 25.9483C100.173 25.9483 100.583 24.3726 98.4644 24.3726L98.4551 24.3678ZM92.6441 32.0211C92.7655 31.6284 92.9101 31.1351 93.0688 30.5891L94.3244 26.2165H95.4586C95.4586 26.2165 96.1867 26.2165 95.9953 27.0307C95.7386 28.0843 94.8471 31.6284 94.8471 31.6284C94.8471 31.6284 94.5951 32.7538 93.6289 32.7538H92.3547C92.4667 32.5192 92.5648 32.2701 92.6441 32.0211Z" fill="white"/>
<path d="M111.953 24.4397H101.13C101.13 24.4397 101.54 25.0766 101.26 26.5038C100.989 27.9406 99.6033 33.5441 99.6033 33.5441C99.6033 33.5441 99.4679 34.0853 99.2112 34.363C99.1552 34.4301 98.9918 34.6025 98.9918 34.6025H106.987C107.911 34.6025 109.312 34.3056 109.736 32.6006C110.049 31.3554 111.095 26.6954 111.095 26.6954C111.095 26.6954 111.412 25.0383 111.991 24.4732C112.028 24.4349 111.921 24.4636 111.949 24.4397H111.953ZM104.579 32.7538H103.734L105.26 26.2452H106.399C107.291 26.2452 107.118 27.0881 107.118 27.0881C107.118 27.0881 106.1 31.5374 106.054 31.7194C105.858 32.3659 105.312 32.7491 104.579 32.7491V32.7538Z" fill="white"/>
<path d="M84.9988 24.1667L82.3524 24.636L82.5157 23.9751C82.5157 23.9751 82.7351 23.4004 82.9358 23.2328H78.9452C79.0665 23.5872 78.9452 24.4061 78.8471 24.8611C78.8285 24.9377 78.8005 25.0814 78.7538 25.2826L77.4096 25.522C77.5496 24.9425 77.6523 24.5738 77.6523 24.5738C77.6523 24.5738 77.881 23.9751 78.1377 23.7069C78.1564 23.6877 78.175 23.6638 78.1937 23.6446H74.0583C74.091 23.7213 74.245 24.1906 73.979 25.2778C73.937 25.4693 73.853 25.7807 73.7596 26.159L73.0549 26.2787C73.0549 26.2787 72.3267 28.2759 72.2894 28.3573C72.3034 28.319 73.0502 28.046 73.3069 27.9358C72.7888 29.9808 72.1774 32.3659 72.1774 32.3659C72.1774 32.3659 71.5613 34.545 73.825 34.545H84.2987L85.5216 32.1073C85.5216 32.1073 84.6301 32.7107 83.2439 32.7634C82.9358 32.7778 80.5741 32.7634 80.5741 32.7634H76.7701C76.2567 32.7634 75.6873 32.3563 75.8553 31.6427C75.9533 31.2404 76.4854 29.1331 76.9522 27.3276C77.3956 27.2557 77.8576 27.1791 78.3104 27.1073C77.7783 29.2577 77.0548 32.136 77.0548 32.136H80.4714L80.7841 30.8812L81.2462 31.681H83.6686C85.1995 31.681 85.5869 30.4262 85.5869 30.4262C85.5869 30.4262 86.1097 28.4483 86.6698 26.2117C87.2485 23.9511 85.0035 24.1667 85.0035 24.1667H84.9988ZM81.881 26.5374C82.035 26.5038 82.1377 26.4895 82.1844 26.4847C83.3466 26.2596 83.0292 27.1025 83.0292 27.1025C83.0292 27.1025 82.6091 28.7596 82.3804 29.6552C82.2357 30.2251 81.6476 30.1916 81.6476 30.1916H80.9615L81.881 26.5374Z" fill="white"/>
<path d="M71.7479 23.4004C70.6371 23.386 67.6219 23.4004 67.6219 23.4004H64.2847C64.2847 23.4004 64.7561 24.296 64.5181 25.2634C64.378 25.8668 63.3699 29.5546 63.3699 29.5546C63.3699 29.5546 63.2159 30.1724 62.8191 30.455C62.8051 30.455 67.4026 30.455 67.4026 30.455C67.7199 30.5268 67.9953 30.7088 67.888 31.1303C67.7246 31.796 67.6359 32.0737 67.6359 32.0737C67.6359 32.0737 67.3839 32.8879 66.5764 32.8879H66.4644C66.9031 31.7337 67.2579 30.6561 67.2579 30.6561C67.2579 30.6561 66.3104 31.7385 65.3769 31.5757C64.2474 31.3841 62.8378 30.6705 62.105 32.3419C61.7036 33.2615 61.3115 34.1571 61.0642 34.7414C60.9288 35.067 60.9708 35.0958 61.2275 34.7893C61.6943 34.2145 62.4924 33.4531 63.3325 33.5967C64.238 33.75 65.8203 34.5306 66.3617 33.1417C66.371 33.1417 66.3757 33.1226 66.3757 33.1226L67.5566 34.6216H69.2742C69.5636 34.6216 70.4084 34.6695 70.7164 33.4626C70.7678 33.2471 71.2625 31.3889 71.3839 30.9147C71.5519 30.2634 71.8086 29.0469 70.1517 29.0469H70.1237L70.3197 28.2663H71.8506C71.8506 28.2663 71.9486 28.0412 72.0093 27.8065C72.0607 27.5862 72.0607 27.0977 70.9498 27.0881C70.8565 27.0881 70.7444 27.0833 70.6184 27.0833L70.7584 26.5469H72.182C72.182 26.5469 72.2754 26.3218 72.336 26.0919C72.392 25.8668 72.392 25.3783 71.2812 25.3688C71.2159 25.3688 71.1412 25.3688 71.0618 25.3688L71.2065 24.8036H72.6488C72.6488 24.8036 72.7468 24.5354 72.8028 24.2672C72.8588 23.999 72.8588 23.4243 71.7479 23.4052V23.4004ZM67.8646 29.0421C67.5799 29.023 67.0058 28.908 67.1412 28.2902H67.1365V28.2711H68.056L67.8693 29.0469L67.8646 29.0421ZM68.336 27.0833H67.4446L67.5846 26.5469H68.4667L68.3314 27.0833H68.336ZM68.7561 25.3544C68.4387 25.3544 68.1447 25.364 67.888 25.364L68.0327 24.7988H68.8868L68.7514 25.3544H68.7561Z" fill="white"/>
<path d="M52.4201 0.20116C51.6966 0.081428 51.0292 0.234685 50.5764 0.416677C50.5297 0.383152 50.4784 0.378363 50.4271 0.354417C50.1143 0.253842 49.5543 0.512462 49.5543 0.512462L50.0023 0.665719C50.0023 0.665719 52.0887 0.0622709 52.4247 3.34292C52.9241 8.40039 51.0338 12.5 50.6791 13.8985C50.6231 14.1379 50.5578 14.3822 50.4924 14.5929L50.4737 14.5498L50.3617 14.6552L50.1984 15.1102L49.7783 15.6514L49.4516 16.1351L49.909 16.2979C49.909 16.2979 50.4177 15.7088 50.8285 15.0431C53.1342 11.2931 54.273 6.74809 54.4224 4.2912C54.5624 2.11208 53.6709 0.421466 52.4247 0.210738L52.4201 0.20116ZM50.0023 25.9052L49.6383 26.4272L49.4936 26.7529C49.0502 27.0881 48.5181 27.4856 47.944 27.8592C45.2275 29.6121 42.315 29.842 41.7503 29.8851C41.7503 29.8851 43.4352 30.6801 45.4889 30.1293C46.5391 29.842 48.0747 29.0757 49.4049 27.6293C49.9136 27.0977 50.273 26.5517 50.5858 25.8669C50.5157 25.7902 50.301 25.5699 50.301 25.5699L50.0023 25.9052ZM48.3967 24.0182C48.9148 22.9502 48.9382 22.4713 48.9382 22.4713L48.5974 22.2174L48.5461 22.3515L48.2054 23.0747L47.8366 23.6925L47.7386 24.0374C46.7678 25.0575 45.2789 26.3841 43.3652 27.3946C40.7141 28.7883 38.175 27.9646 38.175 27.9646C38.175 27.9646 38.4597 28.4531 39.0058 28.7548C39.5146 29.0278 42.105 30.1293 44.8635 28.0125C46.8845 26.4799 47.8973 25.0479 48.3967 24.0182ZM56.6394 4.53066C56.7888 0.435834 54.0817 0.507673 54.0537 0.507673C55.5146 2.51917 55.1785 6.49905 54.3244 10.7184C53.8063 13.2711 52.9008 15.819 52.2474 17.4569L52.1914 17.3899L51.958 17.9071C51.958 17.9071 51.5052 18.3908 51.4072 18.6207C51.3139 18.8314 51.0478 19.0853 51.0478 19.0853L51.4726 19.2337C51.8226 19.0374 52.3174 18.3717 52.7515 17.7059C53.8903 15.9339 56.4201 10.5556 56.6441 4.53066H56.6394ZM57.2462 3.08909L56.7841 2.93104C56.7841 2.93104 57.2462 3.37645 57.3209 3.61591C57.3676 3.71649 57.4189 3.78832 57.4936 3.85537C57.7503 5.03832 57.7503 6.99235 56.8355 11.2309C55.8226 15.8669 54.6698 18.568 53.8296 20.34L53.6149 20.6609L53.7036 20.455L53.4796 20.5412L53.3022 21.1111L52.7421 22.0642L52.4247 22.3803L52.3314 22.4473L52.8355 22.5623C52.8355 22.5623 53.1622 22.3707 53.4656 21.978C53.937 21.4033 56.0747 18.7261 57.6896 13.6494C60.5414 4.7366 57.2415 3.07951 57.2415 3.07951L57.2462 3.08909ZM51.1085 2.52396L50.9918 2.773L51.0105 2.89273C50.1003 3.31419 48.21 4.35346 46.5298 6.33622C46.1424 6.7912 44.7421 8.03162 44.7421 8.03162L45.2462 8.34292H46.9312C49.6383 4.86591 51.3326 4.35825 51.6453 4.28641C51.6919 3.47702 51.5426 2.66285 51.5426 2.66285L51.1038 2.52396H51.1085ZM43.4072 17.8257C43.5893 17.4282 43.79 16.9876 44.0187 16.523L43.5939 16.3123L43.0992 16.523C42.9498 16.9061 42.6231 17.5 42.6231 17.5L43.0385 17.8209H43.4119L43.4072 17.8257ZM45.8763 6.01534C48.3874 3.18009 51.2625 1.95882 51.2625 1.95882C51.2625 1.95882 50.3897 1.01534 49.1949 1.33143C48.3454 1.54216 41.7223 8.03162 41.7223 8.03162L42.1657 8.34292H44.1213C44.6348 7.5479 45.2135 6.76246 45.8716 6.01534H45.8763ZM51.1132 5.42147V5.4502C50.4644 5.82377 47.6499 8.02683 47.6499 8.02683L48.1447 8.33813H50.1797C51.0245 7.58143 51.5939 7.15997 51.5939 7.15997L51.748 5.1389L51.3045 4.98564L51.1132 5.41668V5.42147ZM40.8448 27.3803C41.993 27.045 43.0245 26.4081 43.902 25.6609C46.1797 23.7787 47.3419 21.6379 47.5286 21.1399L47.1925 20.9052L46.8845 21.2979L46.5951 21.7816L46.3524 22.1887L46.0863 22.5431L45.9977 22.7059C43.8553 24.8228 41.0875 26.1399 39.4819 25.6801C37.7129 25.1581 36.8775 23.1178 36.8775 23.1178L36.4761 22.9789C36.4761 22.9789 36.4994 23.319 36.6301 23.6303C36.7421 23.8697 36.9335 24.1044 37.0268 24.2002C37.0828 24.6695 37.1482 25.1581 37.2229 25.4119C37.3769 25.9914 38.119 28.1514 40.8448 27.3851V27.3803ZM44.8215 13.2376H45.8763C46.0863 12.9215 46.2964 12.615 46.5204 12.3132C46.6231 12.1791 46.7258 12.0498 46.8285 11.9205L46.4411 11.6906L45.4516 11.9205C45.2275 12.2797 44.336 12.9263 44.336 12.9263L44.8261 13.2376H44.8215Z" fill="white"/>
<path d="M51.3092 4.99045C51.3092 4.99045 49.6476 5.56037 47.7386 7.93106C47.7153 7.96938 47.6873 7.99811 47.6593 8.03643H49.909C50.6511 7.37551 51.1552 7.00673 51.1552 7.00673L51.3092 4.99524V4.99045Z" fill="#EED525"/>
<path d="M51.1039 2.51437C51.1039 2.51437 48.3922 3.4387 46.0864 6.17817C45.671 6.66188 45.209 7.31801 44.7375 8.03161H46.6139C49.251 4.69349 50.9732 4.17146 51.2533 4.1092C51.2533 4.1092 51.2906 4.12836 51.258 3.67338C51.2066 3.00288 51.1039 2.51437 51.1039 2.51437Z" fill="#EED525"/>
<path d="M40.4061 27.2079C43.944 26.1973 46.7492 22.0833 47.2019 20.91C47.2019 20.91 46.5625 21.523 46.1797 21.9301C43.916 24.3582 40.8075 26.0153 39.0525 25.5077C37.2882 24.9952 36.4901 22.9789 36.4901 22.9789C36.4901 22.9789 36.6395 24.6839 36.7888 25.2491C36.9382 25.8142 37.6943 27.9837 40.4061 27.2079Z" fill="#EED525"/>
<path d="M44.3407 12.9262H45.5356C45.713 12.6628 45.895 12.4042 46.0817 12.16C46.1984 11.9971 46.3197 11.8391 46.4411 11.6906H45.0548C44.7935 12.1121 44.5554 12.5287 44.3361 12.9262" fill="#EED525"/>
<path d="M42.9172 16.317L42.6232 17.5048H43.0339C43.2066 17.1312 43.3933 16.7337 43.5987 16.317H42.9172Z" fill="#EED525"/>
<path d="M43.7713 8.03162C44.2614 7.29408 44.8121 6.55653 45.4282 5.86687C47.9393 3.03162 50.8005 1.7912 50.8005 1.7912C50.8005 1.7912 49.9463 0.862084 48.7375 1.17339C47.888 1.39848 44.3034 3.49139 41.7223 8.03641H43.7666L43.7713 8.03162Z" fill="#EED525"/>
<path d="M56.7794 2.92627C57.2415 4.01343 57.5309 5.75194 56.3827 11.068C54.8238 18.2855 52.462 22.2031 52.462 22.2031L52.322 22.4186L52.7141 22.136C52.7141 22.136 55.4259 19.1619 57.2368 13.4914C60.0746 4.57378 56.7748 2.92148 56.7748 2.92148" fill="#EED525"/>
<path d="M48.5928 22.2079C48.5928 22.2079 46.4832 25.3448 42.9172 27.2079C40.2474 28.5967 37.9884 27.8305 37.9884 27.8305C37.9884 27.8305 38.3665 28.4387 39.0526 28.7548C39.44 28.9368 41.769 29.8611 44.5462 27.7682C48.3875 24.8851 48.5882 22.2031 48.5882 22.2031" fill="#EED525"/>
<path d="M53.769 0.450196C55.2252 2.46648 54.7212 6.33142 53.867 10.5556C53.0129 14.7845 51.0432 19.0805 51.0432 19.0805C51.0432 19.0805 51.2719 19.1284 52.3081 17.5671C53.4703 15.8142 55.9487 10.4023 56.1774 4.36782C56.3361 0.244257 53.769 0.445406 53.769 0.445406" fill="#EED525"/>
<path d="M51.958 0.0383265C50.7071 -0.162823 49.5449 0.502886 49.5449 0.502886C49.5449 0.502886 51.6313 -0.100563 51.958 3.18488C52.4621 8.23756 50.8658 12.0642 50.3384 13.6686C49.8857 15.0383 49.4423 16.1255 49.4423 16.1255C49.4423 16.1255 49.9977 15.5556 50.3991 14.8851C52.5741 11.2596 53.8157 6.58526 53.965 4.10921C54.105 1.93967 53.2182 0.249054 51.958 0.0383265Z" fill="#EED525"/>
<path d="M47.4913 27.6676C44.7748 29.4205 42.2124 29.7845 41.6616 29.8324C41.6616 29.8324 42.9685 30.5029 45.0315 29.933C46.4784 29.5307 48.8448 28.228 50.3011 25.5508C49.9697 25.7759 49.0735 26.6475 47.4959 27.6676" fill="#EED525"/>
<path d="M0.900817 8.82663L0 11.1446C0.644107 10.6466 1.69895 10.6466 1.69895 10.6466H3.52392L1.82497 17.6245C1.82497 17.6245 1.37223 19.5402 0.751459 20.3544H5.55893C5.4049 19.66 5.85298 17.9981 5.85298 17.9981L7.64061 10.6466H9.57293C10.5531 10.6466 10.9498 11.1303 10.9498 11.1303L11.1692 8.82184H0.900817V8.82663Z" fill="white"/>
<path d="M21.881 8.83621C21.825 9.15709 21.6663 9.71744 21.1855 10.2874C20.4341 11.1877 18.5391 13.3812 18.5391 13.3812L17.1808 9.85154C17.1808 9.85154 16.9895 9.23851 17.3022 8.841H11.7059C11.8273 8.94158 12 9.15709 12.1913 9.59292C12.5227 10.364 14.5251 15.5508 14.5251 15.5508L13.7269 18.7213C13.7269 18.7213 13.3489 19.751 12.9755 20.3544H17.7503C17.7036 20.1245 17.6849 19.7797 17.7783 19.3056C17.965 18.3764 18.6044 15.795 18.6044 15.795L23.902 9.63123C23.902 9.63123 24.238 9.22414 24.9988 8.84579H21.881V8.83621Z" fill="white"/>
<path d="M29.9137 10.7567H32.5602C32.5602 10.7567 33.0782 10.6849 32.9149 11.3697C32.7422 12.0642 32.5181 12.9646 32.5181 12.9646C32.5181 12.9646 32.4528 13.4195 31.832 13.4195H29.2556C29.5356 12.2845 29.783 11.2739 29.909 10.7519L29.9137 10.7567ZM35.2626 8.81705H25.587C25.727 9.09482 25.8624 9.61206 25.6663 10.4167C25.3443 11.7193 23.6453 18.6638 23.6453 18.6638C23.6453 18.6638 23.4726 19.5594 22.8425 20.3544H27.9114C27.832 19.976 27.7854 19.4349 27.93 18.8027C28.0607 18.319 28.4061 16.887 28.7889 15.3352H30.0957L30.9359 20.3544H35.832C35.832 20.3544 35.6033 20.1628 35.398 19.2624C35.2346 18.5536 34.7305 16.1925 34.5298 15.3352C35.2766 15.3257 36.2848 15.1628 36.6395 13.726C37.0082 12.2557 37.1716 11.6188 37.3069 11.0728C37.4423 10.522 37.6663 8.81226 35.2626 8.81226" fill="white"/>
<path d="M48.6254 10.8812L49.0642 8.841H39.2625C39.3325 9.08047 39.4259 9.6025 39.2205 10.4598C38.9218 11.6619 37.2555 18.4291 37.1668 18.7883C37.0875 19.1092 36.8354 19.7989 36.42 20.34H46.6231L47.0898 18.319H41.6196L42.315 15.5077H47.4539L47.8646 13.7309H42.7538L43.4539 10.8764H48.6394L48.6254 10.8812Z" fill="white"/>
<path d="M73.8809 17.9933H70.2123L72.1167 10.2347C72.1167 10.2347 72.3967 9.2864 72.7981 8.83621H67.9626C68.042 9.09483 68.1307 9.61686 67.9486 10.3496C67.6686 11.4512 65.9696 18.386 65.9603 18.41C65.951 18.4387 65.6709 19.4828 65.0922 20.3448H74.427L75.5099 17.6245C75.5099 17.6245 74.9078 17.9885 73.8763 17.9885" fill="white"/>
<path d="M87.5333 8.83142C87.6686 9.05651 87.8087 9.44445 87.6453 10.0575C87.3513 11.1446 85.993 16.8008 85.993 16.8008C85.993 16.8008 85.7783 17.9837 84.3594 17.9837H81.4143C81.1016 17.9837 80.4014 17.8305 80.6068 16.9636C80.8075 16.0967 82.2731 10.2011 82.2731 10.2011C82.2731 10.2011 82.4924 9.37261 82.9545 8.82663H78.1377C78.2031 9.09483 78.2544 9.57376 78.1051 10.2538C77.8623 11.3362 76.7888 15.8764 76.5368 16.8151C76.2427 17.9454 76.0047 20.3544 78.5251 20.3544H84.2941C85.3303 20.3544 87.1832 20.0192 87.9954 16.8343L89.629 10.1389C89.629 10.1389 89.8297 9.30077 90.3758 8.82663H87.538L87.5333 8.83142Z" fill="white"/>
<path d="M98.371 12.4377H94.9498C94.9498 12.4377 94.3103 12.4665 94.455 11.954C94.609 11.4416 94.7117 11.1877 94.7117 11.1877C94.7117 11.1877 94.8144 10.6753 95.4118 10.6753H99.7946C99.7946 10.6753 100.35 10.6849 100.966 11.0488L101.536 8.86014H93.2881C92.4433 8.86014 91.1225 9.28159 90.6697 11.1877C90.3523 12.5048 89.9836 13.9894 89.9416 14.1762C89.8903 14.3678 89.2975 16.1686 91.5659 16.1686H95.2765C95.2765 16.1686 95.8132 16.1446 95.7059 16.614C95.6079 17.0833 95.4025 17.6101 95.4025 17.6101C95.4025 17.6101 95.3045 18.0986 94.6977 18.0986H90.4317C90.4317 18.0986 89.6335 18.0747 89.0921 17.7059L88.406 20.3304H96.378C96.5134 20.3304 98.6791 20.4167 99.3325 18.1944C99.7246 16.8678 100.093 15.1724 100.173 14.8755C100.238 14.5833 100.714 12.4425 98.3803 12.4425" fill="white"/>
<path d="M64.9288 8.84579H59.0945C59.0245 9.48756 58.9125 10.1628 58.7631 10.8717H62.6604L61.9183 13.8362H57.9556C57.0408 16.681 55.9113 18.865 54.9918 20.3496H59.2065C59.1038 19.6648 59.3279 18.7309 59.3279 18.7309L60.0187 15.9531H62.9358C65.2695 15.9531 65.8156 14.4732 65.8623 14.2768C65.9136 14.09 66.5017 11.7481 66.6511 11.1351C67.1318 9.13794 65.6383 8.84579 64.9241 8.84579" fill="white"/>
</g>
<defs>
<clipPath id="clip0_12_655">
<rect width="112" height="35" fill="white"/>
</clipPath>
</defs>
</svg>
