<svg width="45" height="40" viewBox="0 0 45 40" fill="none" xmlns="http://www.w3.org/2000/svg">
<path d="M8.63885 16.0112H1.23414C0.542772 16.0112 0 16.554 0 17.2454V36.9917C0 37.6831 0.542747 38.2258 1.23414 38.2258H8.63885C9.33022 38.2258 9.87234 37.6831 9.87234 36.9917L9.87266 17.2462C9.8733 16.5545 9.33055 16.0117 8.63884 16.0117L8.63885 16.0112Z" fill="white"/>
<path d="M44.3428 18.3504C44.3428 16.3395 42.962 14.304 40.3248 14.304H28.3687C30.0767 11.2486 30.5791 6.95111 29.3916 3.80729C28.5195 1.49469 26.8526 0.14494 24.6959 0.00778527L24.6609 0.00492704C23.2572 -0.0811379 22.0425 0.970373 21.9256 2.37151C21.6181 5.49012 20.2516 11.0065 18.2934 12.965C16.6445 14.6139 15.2331 15.3046 12.8932 16.4486C12.5547 16.6143 12.1847 16.795 11.7935 16.99C11.8004 17.0748 11.8049 17.1593 11.8049 17.246V36.7907C12.0872 36.8876 12.3661 36.9835 12.6401 37.0775C16.5015 38.4084 19.8387 39.5575 24.9393 39.5575H34.6051C37.2429 39.5575 38.6231 37.5215 38.6231 35.5111C38.6231 34.9144 38.5021 34.3161 38.2624 33.7682C39.1408 33.6104 39.91 33.1877 40.4797 32.5411C41.1263 31.8062 41.4826 30.8296 41.4826 29.7908C41.4826 29.196 41.3616 28.598 41.1228 28.0514C43.2404 27.6859 44.343 25.8681 44.343 24.0711C44.343 23.0289 43.9718 21.9795 43.2473 21.2113C43.9705 20.4425 44.3424 19.3932 44.3424 18.3508L44.3428 18.3504Z" fill="white"/>
</svg>
